<svg xmlns="http://www.w3.org/2000/svg" width="1430" height="658" viewBox="0 0 1430 658" role="img" aria-label="Whisper Transcribe Time Comparison (repeats=10)">
<rect x="0" y="0" width="1430" height="658" fill="#ffffff"/>
<text x="330" y="34" font-family="Segoe UI, Arial, sans-serif" font-size="24" font-weight="700" fill="#111827">Whisper Transcribe Time Comparison (repeats=10)</text>
<text x="330" y="56" font-family="Segoe UI, Arial, sans-serif" font-size="13" fill="#4b5563">Transcribe time in seconds (lower is better) | sorted: fastest -&gt; slowest | repeats per model: 10</text>
<line x1="330.00" y1="70" x2="330.00" y2="546" stroke="#e5e7eb" stroke-width="1"/>
<text x="330.00" y="566" text-anchor="middle" font-family="Consolas, monospace" font-size="12" fill="#6b7280">0.0s</text>
<line x1="575.00" y1="70" x2="575.00" y2="546" stroke="#e5e7eb" stroke-width="1"/>
<text x="575.00" y="566" text-anchor="middle" font-family="Consolas, monospace" font-size="12" fill="#6b7280">2.0s</text>
<line x1="820.00" y1="70" x2="820.00" y2="546" stroke="#e5e7eb" stroke-width="1"/>
<text x="820.00" y="566" text-anchor="middle" font-family="Consolas, monospace" font-size="12" fill="#6b7280">4.0s</text>
<line x1="1065.00" y1="70" x2="1065.00" y2="546" stroke="#e5e7eb" stroke-width="1"/>
<text x="1065.00" y="566" text-anchor="middle" font-family="Consolas, monospace" font-size="12" fill="#6b7280">6.0s</text>
<line x1="1310.00" y1="70" x2="1310.00" y2="546" stroke="#e5e7eb" stroke-width="1"/>
<text x="1310.00" y="566" text-anchor="middle" font-family="Consolas, monospace" font-size="12" fill="#6b7280">8.0s</text>
<text x="320" y="92.28" text-anchor="end" font-family="Segoe UI, Arial, sans-serif" font-size="13" fill="#111827">faster | base</text>
<rect x="330" y="75" width="84.52" height="24" rx="4" fill="#ff7f0e"/>
<text x="422.52" y="92.28" font-family="Consolas, monospace" font-size="12" fill="#111827">0.69s</text>
<text x="320" y="126.28" text-anchor="end" font-family="Segoe UI, Arial, sans-serif" font-size="13" fill="#111827">faster | small</text>
<rect x="330" y="109" width="145.78" height="24" rx="4" fill="#ff7f0e"/>
<text x="483.77" y="126.28" font-family="Consolas, monospace" font-size="12" fill="#111827">1.19s</text>
<text x="320" y="160.28" text-anchor="end" font-family="Segoe UI, Arial, sans-serif" font-size="13" fill="#111827">hf | openai/whisper-tiny</text>
<rect x="330" y="143" width="165.38" height="24" rx="4" fill="#1f77b4"/>
<text x="503.38" y="160.28" font-family="Consolas, monospace" font-size="12" fill="#111827">1.35s</text>
<text x="320" y="194.28" text-anchor="end" font-family="Segoe UI, Arial, sans-serif" font-size="13" fill="#111827">hf | NbAiLab/nb-whisper-tiny</text>
<rect x="330" y="177" width="181.30" height="24" rx="4" fill="#1f77b4"/>
<text x="519.30" y="194.28" font-family="Consolas, monospace" font-size="12" fill="#111827">1.48s</text>
<text x="320" y="228.28" text-anchor="end" font-family="Segoe UI, Arial, sans-serif" font-size="13" fill="#111827">hf | openai/whisper-base</text>
<rect x="330" y="211" width="181.30" height="24" rx="4" fill="#1f77b4"/>
<text x="519.30" y="228.28" font-family="Consolas, monospace" font-size="12" fill="#111827">1.48s</text>
<text x="320" y="262.28" text-anchor="end" font-family="Segoe UI, Arial, sans-serif" font-size="13" fill="#111827">hf | NbAiLab/nb-whisper-base</text>
<rect x="330" y="245" width="183.75" height="24" rx="4" fill="#1f77b4"/>
<text x="521.75" y="262.28" font-family="Consolas, monospace" font-size="12" fill="#111827">1.50s</text>
<text x="320" y="296.28" text-anchor="end" font-family="Segoe UI, Arial, sans-serif" font-size="13" fill="#111827">faster | medium</text>
<rect x="330" y="279" width="233.97" height="24" rx="4" fill="#ff7f0e"/>
<text x="571.98" y="296.28" font-family="Consolas, monospace" font-size="12" fill="#111827">1.91s</text>
<text x="320" y="330.28" text-anchor="end" font-family="Segoe UI, Arial, sans-serif" font-size="13" fill="#111827">hf | openai/whisper-small</text>
<rect x="330" y="313" width="264.60" height="24" rx="4" fill="#1f77b4"/>
<text x="602.60" y="330.28" font-family="Consolas, monospace" font-size="12" fill="#111827">2.16s</text>
<text x="320" y="364.28" text-anchor="end" font-family="Segoe UI, Arial, sans-serif" font-size="13" fill="#111827">hf | NbAiLab/nb-whisper-small</text>
<rect x="330" y="347" width="284.20" height="24" rx="4" fill="#1f77b4"/>
<text x="622.20" y="364.28" font-family="Consolas, monospace" font-size="12" fill="#111827">2.32s</text>
<text x="320" y="398.28" text-anchor="end" font-family="Segoe UI, Arial, sans-serif" font-size="13" fill="#111827">faster | large-v3</text>
<rect x="330" y="381" width="301.35" height="24" rx="4" fill="#ff7f0e"/>
<text x="639.35" y="398.28" font-family="Consolas, monospace" font-size="12" fill="#111827">2.46s</text>
<text x="320" y="432.28" text-anchor="end" font-family="Segoe UI, Arial, sans-serif" font-size="13" fill="#111827">hf | NbAiLab/nb-whisper-medium</text>
<rect x="330" y="415" width="444.68" height="24" rx="4" fill="#1f77b4"/>
<text x="782.67" y="432.28" font-family="Consolas, monospace" font-size="12" fill="#111827">3.63s</text>
<text x="320" y="466.28" text-anchor="end" font-family="Segoe UI, Arial, sans-serif" font-size="13" fill="#111827">hf | NbAiLab/nb-whisper-large</text>
<rect x="330" y="449" width="552.48" height="24" rx="4" fill="#1f77b4"/>
<text x="890.48" y="466.28" font-family="Consolas, monospace" font-size="12" fill="#111827">4.51s</text>
<text x="320" y="500.28" text-anchor="end" font-family="Segoe UI, Arial, sans-serif" font-size="13" fill="#111827">hf | openai/whisper-medium</text>
<rect x="330" y="483" width="606.38" height="24" rx="4" fill="#1f77b4"/>
<text x="944.38" y="500.28" font-family="Consolas, monospace" font-size="12" fill="#111827">4.95s</text>
<text x="320" y="534.28" text-anchor="end" font-family="Segoe UI, Arial, sans-serif" font-size="13" fill="#111827">hf | openai/whisper-large</text>
<rect x="330" y="517" width="662.73" height="24" rx="4" fill="#1f77b4"/>
<text x="1000.73" y="534.28" font-family="Consolas, monospace" font-size="12" fill="#111827">5.41s</text>
<rect x="330" y="582" width="14" height="14" fill="#1f77b4"/>
<text x="350" y="594" font-family="Segoe UI, Arial, sans-serif" font-size="12" fill="#111827">hf</text>
<rect x="400" y="582" width="14" height="14" fill="#ff7f0e"/>
<text x="420" y="594" font-family="Segoe UI, Arial, sans-serif" font-size="12" fill="#111827">faster</text>
<text x="330" y="618" font-family="Segoe UI, Arial, sans-serif" font-size="12" fill="#b91c1c">Skipped (missing transcribe time):</text>
<text x="342" y="636" font-family="Consolas, monospace" font-size="11" fill="#b91c1c">- faster | tiny (exit=3221226505)</text>
</svg>